<?xml version="1.0" encoding="UTF-8"?> <svg xmlns="http://www.w3.org/2000/svg" id="Layer_1" data-name="Layer 1" viewBox="0 0 560.56 123.1"><defs><style>.cls-1{fill:#fff;}.cls-2{fill:none;stroke:#fff;stroke-miterlimit:10;}</style></defs><title>bg-logo-white</title><path class="cls-1" d="M239,327a16.15,16.15,0,0,0,.5-4V304.47a19,19,0,0,1-34.92-10.26,35.59,35.59,0,0,0-8.7-23.32q-1-1.15-2.07-2.22a36.38,36.38,0,0,0-41.39-6.7V284a19,19,0,0,1,32.84,1.62,18.53,18.53,0,0,1,2.08,8.55,36.07,36.07,0,0,0,8.54,23.33c.66.77,1.34,1.52,2.06,2.24A36.14,36.14,0,0,0,239,327Z" transform="translate(-132.2 -236.09)"></path><path class="cls-1" d="M168.41,313a18.86,18.86,0,0,1-19-18.82V253.33a17.24,17.24,0,0,0-17.24-17.24h0v58.12c0,1,.05,2,.13,3a36.27,36.27,0,0,0,61.51,22.53,39.3,39.3,0,0,1-8.54-17A19,19,0,0,1,168.41,313Z" transform="translate(-132.2 -236.09)"></path><path class="cls-1" d="M259.67,291.2A36.19,36.19,0,0,0,198,268.65a38.71,38.71,0,0,1,8.69,17,19,19,0,0,1,35.64,5.57,18.71,18.71,0,0,1,.25,3V323a19.65,19.65,0,0,1-1,6.09,19,19,0,0,1-31.37,7.32L198,348.57A36.19,36.19,0,0,0,259.8,323V294.21C259.8,293.2,259.75,292.19,259.67,291.2Z" transform="translate(-132.2 -236.09)"></path><line class="cls-2" x1="169.28" y1="38.84" x2="169.28" y2="84.26"></line><path class="cls-1" d="M340.35,315.35a1.24,1.24,0,0,1-.93-.4A1.27,1.27,0,0,1,339,314V282.37a1.33,1.33,0,0,1,1.32-1.32h15.78a14.75,14.75,0,0,1,5.53.91,9.59,9.59,0,0,1,3.6,2.35,8.58,8.58,0,0,1,1.94,3.28,12,12,0,0,1,.59,3.65,8.39,8.39,0,0,1-1.08,4.29,6,6,0,0,1-.91,1.22,10.27,10.27,0,0,1-.76.71,7.31,7.31,0,0,1,2.67,3.06,10.39,10.39,0,0,1,.76,4.19,13.29,13.29,0,0,1-.58,3.92A9.06,9.06,0,0,1,366,312a9.76,9.76,0,0,1-3.5,2.4,13.75,13.75,0,0,1-5.29.91Zm18.32-23.91a2.79,2.79,0,0,0-.75-2,3.06,3.06,0,0,0-2.23-.76h-7.6v5.59h7.6a3,3,0,0,0,2.23-.76A2.76,2.76,0,0,0,358.67,291.44Zm-10.58,16.31h8.09a3.2,3.2,0,0,0,2.35-.86,3,3,0,0,0,0-4.26,3.24,3.24,0,0,0-2.35-.86h-8.09Z" transform="translate(-132.2 -236.09)"></path><path class="cls-1" d="M397.92,307.51a1.33,1.33,0,0,1,1.32,1.32V314a1.27,1.27,0,0,1-.39.93,1.24,1.24,0,0,1-.93.4H375.23a1.24,1.24,0,0,1-.93-.4,1.27,1.27,0,0,1-.39-.93V282.37a1.33,1.33,0,0,1,1.32-1.32h6.42a1.33,1.33,0,0,1,1.32,1.32v25.14Z" transform="translate(-132.2 -236.09)"></path><path class="cls-1" d="M421.58,281.05a2,2,0,0,1,1.5.54,3.19,3.19,0,0,1,.71,1.08l10.68,30.86a2.2,2.2,0,0,1,.19.74,1,1,0,0,1-.31.76,1.07,1.07,0,0,1-.76.32h-6.18a1.89,1.89,0,0,1-1.39-.42,1.87,1.87,0,0,1-.52-.81l-1.37-4.07h-13l-1.37,4.07a1.87,1.87,0,0,1-.52.81,1.91,1.91,0,0,1-1.39.42h-6.18a1.09,1.09,0,0,1-1.08-1.08,2.28,2.28,0,0,1,.2-.74l10.68-30.86a3.19,3.19,0,0,1,.71-1.08,2,2,0,0,1,1.5-.54Zm-7.93,21.41h7.93l-4-11.76Z" transform="translate(-132.2 -236.09)"></path><path class="cls-1" d="M445.69,294.08c0,.43-.06,1-.08,1.77s0,1.52,0,2.32,0,1.59,0,2.35.05,1.37.08,1.79a9.1,9.1,0,0,0,.44,2.16,4.83,4.83,0,0,0,1.08,1.81,5.3,5.3,0,0,0,1.86,1.25,7.32,7.32,0,0,0,2.79.47,7.85,7.85,0,0,0,2.74-.4,5.9,5.9,0,0,0,1.77-1,4.08,4.08,0,0,0,1.05-1.25,9,9,0,0,0,.57-1.27,3.09,3.09,0,0,1,.53-1.11,1.56,1.56,0,0,1,1.13-.32h6.42a1.05,1.05,0,0,1,.76.32,1.07,1.07,0,0,1,.32.76,10.32,10.32,0,0,1-1.23,4.71,12,12,0,0,1-3.23,3.82,16.35,16.35,0,0,1-4.83,2.57,18.15,18.15,0,0,1-6,1,17.61,17.61,0,0,1-6.29-1.06,14.42,14.42,0,0,1-4.73-2.86,12.67,12.67,0,0,1-3-4.24,14.91,14.91,0,0,1-1.2-5.12c-.06-1.34-.09-2.78-.09-4.31s0-3,.09-4.41a13.74,13.74,0,0,1,1.18-5.12,13,13,0,0,1,3-4.24,14.23,14.23,0,0,1,4.73-2.87,17.86,17.86,0,0,1,6.32-1.05,18.41,18.41,0,0,1,6,.95,16.37,16.37,0,0,1,4.83,2.58,11.9,11.9,0,0,1,3.23,3.82,10.31,10.31,0,0,1,1.23,4.7,1,1,0,0,1-.32.76,1.05,1.05,0,0,1-.76.32h-6.42a1.56,1.56,0,0,1-1.13-.32,3,3,0,0,1-.53-1.1,9.07,9.07,0,0,0-.57-1.28,4,4,0,0,0-1.05-1.24,5.91,5.91,0,0,0-1.77-1,8.12,8.12,0,0,0-2.74-.39,7.33,7.33,0,0,0-2.79.46,5.3,5.3,0,0,0-1.86,1.25,5,5,0,0,0-1.08,1.82A8.92,8.92,0,0,0,445.69,294.08Z" transform="translate(-132.2 -236.09)"></path><path class="cls-1" d="M501.25,313.73a.87.87,0,0,1,.14.54,1,1,0,0,1-.31.76,1.07,1.07,0,0,1-.76.32h-7.79a2,2,0,0,1-1.13-.3,4,4,0,0,1-.88-.83l-9.26-11.66V314a1.35,1.35,0,0,1-1.32,1.33h-6.42a1.37,1.37,0,0,1-1.33-1.33V282.37a1.24,1.24,0,0,1,.4-.93,1.27,1.27,0,0,1,.93-.39h6.42a1.3,1.3,0,0,1,.93.39,1.27,1.27,0,0,1,.39.93v10.34l8.62-10.58a9,9,0,0,1,.64-.69,1.83,1.83,0,0,1,1.32-.39h7.64a1,1,0,0,1,.76.32,1,1,0,0,1,.32.76.87.87,0,0,1-.15.54l-12.1,14.79Z" transform="translate(-132.2 -236.09)"></path><path class="cls-1" d="M537.89,298.83a1.57,1.57,0,0,1,.69-1.07,2.15,2.15,0,0,1,1.18-.35h5.83a1.24,1.24,0,0,1,.93.4,1.21,1.21,0,0,1,.39.88,10.68,10.68,0,0,1-.22,2,15.69,15.69,0,0,1-.71,2.45,17.94,17.94,0,0,1-1.28,2.67,19.74,19.74,0,0,1-1.86,2.7l5.25,5.29a.94.94,0,0,1,.29.68.78.78,0,0,1-.25.59.86.86,0,0,1-.63.25h-8.87a1.53,1.53,0,0,1-.78-.15,2.22,2.22,0,0,1-.45-.34l-1.07-1.08a20.27,20.27,0,0,1-4.39,1.52,23.51,23.51,0,0,1-5.22.54,21.93,21.93,0,0,1-4.45-.47,12.3,12.3,0,0,1-4.1-1.62,9.09,9.09,0,0,1-3-3A8.94,8.94,0,0,1,514,306a8.32,8.32,0,0,1,1.55-5.05,15.94,15.94,0,0,1,4.28-3.87,21.7,21.7,0,0,1-1.49-2,12.21,12.21,0,0,1-1-1.81,7.92,7.92,0,0,1-.57-1.81,11.5,11.5,0,0,1-.17-2,7.44,7.44,0,0,1,.88-3.6,8.77,8.77,0,0,1,2.4-2.82,11.54,11.54,0,0,1,3.58-1.84,14.16,14.16,0,0,1,4.36-.66,13.87,13.87,0,0,1,4.36.68,12.08,12.08,0,0,1,3.6,1.89,9,9,0,0,1,2.43,2.84,7.31,7.31,0,0,1,.88,3.51,9,9,0,0,1-.27,2.1,9.16,9.16,0,0,1-.93,2.31,13.45,13.45,0,0,1-1.81,2.42,17.91,17.91,0,0,1-2.92,2.48l3.43,3.47a13.48,13.48,0,0,0,.81-1.81A10.71,10.71,0,0,0,537.89,298.83Zm-11.17,10.44a8.52,8.52,0,0,0,2.16-.27,10.47,10.47,0,0,0,2-.76L525.65,303a8.52,8.52,0,0,0-2,1.54,2.67,2.67,0,0,0-.81,1.84,2.57,2.57,0,0,0,1,2.18A4.74,4.74,0,0,0,526.72,309.27Zm-1.32-19.79a3.12,3.12,0,0,0,.59,1.71,13.41,13.41,0,0,0,1.37,1.72q2.94-1.77,2.94-3.43a2.06,2.06,0,0,0-.78-1.82,2.91,2.91,0,0,0-1.67-.54,2.67,2.67,0,0,0-1.71.59A2.13,2.13,0,0,0,525.4,289.48Z" transform="translate(-132.2 -236.09)"></path><path class="cls-1" d="M577,288.4a7.33,7.33,0,0,0-2.79.46,5,5,0,0,0-1.84,1.25,5.17,5.17,0,0,0-1.05,1.82,11.41,11.41,0,0,0-.49,2.15,12.54,12.54,0,0,0-.12,1.77c0,.75,0,1.52,0,2.32s0,1.59.05,2.35.07,1.37.1,1.79a8.66,8.66,0,0,0,.46,2.16,5.42,5.42,0,0,0,1.08,1.81,5,5,0,0,0,1.86,1.25A7.39,7.39,0,0,0,577,308a9.28,9.28,0,0,0,2.4-.3,5.24,5.24,0,0,0,2-.93,4.47,4.47,0,0,0,1.33-1.66,5.9,5.9,0,0,0,.48-2.5h-4.11a1.24,1.24,0,0,1-.93-.4,1.27,1.27,0,0,1-.39-.93v-5.19a1.33,1.33,0,0,1,1.32-1.32h11.86a1.29,1.29,0,0,1,.93.39,1.27,1.27,0,0,1,.39.93v6.27a13,13,0,0,1-1.18,5.64,12.27,12.27,0,0,1-3.23,4.23A14.53,14.53,0,0,1,583,314.9a18.68,18.68,0,0,1-6,.94,17.61,17.61,0,0,1-6.29-1.06,14.42,14.42,0,0,1-4.73-2.86,12.67,12.67,0,0,1-3-4.24,14.91,14.91,0,0,1-1.2-5.12c-.06-1.34-.09-2.78-.09-4.31s0-3,.09-4.41a13.74,13.74,0,0,1,1.18-5.12,13,13,0,0,1,3-4.24,14.23,14.23,0,0,1,4.73-2.87,19.54,19.54,0,0,1,12.49-.05,16.17,16.17,0,0,1,4.66,2.55,12.71,12.71,0,0,1,3,3.38A7.84,7.84,0,0,1,592,291a.83.83,0,0,1-.29.76,1.09,1.09,0,0,1-.78.32h-6.52a1.49,1.49,0,0,1-1.15-.44c-.28-.29-.55-.59-.81-.88a7.13,7.13,0,0,0-1.86-1.62A6.92,6.92,0,0,0,577,288.4Z" transform="translate(-132.2 -236.09)"></path><path class="cls-1" d="M612.37,281.05a22.18,22.18,0,0,1,5.78.69,12.17,12.17,0,0,1,4.33,2.05,9.08,9.08,0,0,1,2.75,3.51,12.14,12.14,0,0,1,.95,5,11.24,11.24,0,0,1-1.52,6.1,9.66,9.66,0,0,1-4.31,3.7l6.08,11.66a1.27,1.27,0,0,1,.14.54,1,1,0,0,1-.31.76,1.07,1.07,0,0,1-.76.32h-6.67a1.81,1.81,0,0,1-1.39-.45,4.37,4.37,0,0,1-.67-.88l-5.43-10.48h-4.51V314a1.35,1.35,0,0,1-1.32,1.33h-6.42a1.35,1.35,0,0,1-1.32-1.33V282.37a1.23,1.23,0,0,1,.39-.93,1.27,1.27,0,0,1,.93-.39Zm-5.54,14.84h5.54a6.71,6.71,0,0,0,3.4-.78,3.66,3.66,0,0,0,0-5.68,6.71,6.71,0,0,0-3.4-.79h-5.54Z" transform="translate(-132.2 -236.09)"></path><path class="cls-1" d="M656.36,307.51a1.35,1.35,0,0,1,1.33,1.32V314a1.28,1.28,0,0,1-.4.93,1.24,1.24,0,0,1-.93.4H633.14a1.24,1.24,0,0,1-.93-.4,1.27,1.27,0,0,1-.39-.93V282.37a1.33,1.33,0,0,1,1.32-1.32H656a1.33,1.33,0,0,1,1.32,1.32v5.2a1.33,1.33,0,0,1-1.32,1.32H640.88v5.29h14a1.35,1.35,0,0,1,1.33,1.32v5.2a1.35,1.35,0,0,1-1.33,1.32h-14v5.49Z" transform="translate(-132.2 -236.09)"></path><path class="cls-1" d="M681.25,314a1.27,1.27,0,0,1-.39.93,1.24,1.24,0,0,1-.93.4h-6.42a1.24,1.24,0,0,1-.93-.4,1.27,1.27,0,0,1-.39-.93V303.59l-11.32-20.83a1.28,1.28,0,0,1-.2-.63,1,1,0,0,1,.32-.76,1.05,1.05,0,0,1,.76-.32h6.71a2,2,0,0,1,1.47.49,2.7,2.7,0,0,1,.59.73l6.17,12.06,6.23-12.06a2.82,2.82,0,0,1,.58-.73,2,2,0,0,1,1.47-.49h6.72a1.07,1.07,0,0,1,.76.32,1,1,0,0,1,.31.76,1.26,1.26,0,0,1-.19.63l-11.32,20.83Z" transform="translate(-132.2 -236.09)"></path></svg> 